  <svg
    width="100"
    height="100"
    viewBox="0 0 100 100"
    fill="none"
    xmlns="http://www.w3.org/2000/svg"
    >
    <path
      d="M90 10C85.588 10 82 13.588 82 18V44.008C80.084 44.092 78.294 44.878 76.93 46.242L62 61.172V98H88V74.828L98 64.828V18C98 13.588 94.412 10 90 10ZM94 63.172L84 73.172V94H66V62.828L79.758 49.07C80.438 48.39 81.38 48 82.344 48C84.36 48 86 49.64 86 51.656C86 52.618 85.61 53.562 84.93 54.242L76.586 62.586L79.414 65.414L87.758 57.07C89.204 55.624 90 53.702 90 51.656C90 48.758 88.38 46.23 86 44.932V18C86 15.794 87.794 14 90 14C92.206 14 94 15.794 94 18V63.172Z"
      fill="#045161"
    />
    <path
      d="M18 44.008V18C18 13.588 14.412 10 10 10C5.588 10 2 13.588 2 18V64.828L12 74.828V98H38V61.172L23.07 46.242C21.706 44.876 19.916 44.092 18 44.008ZM34 94H16V73.172L6 63.172V18C6 15.794 7.794 14 10 14C12.206 14 14 15.794 14 18V44.932C11.62 46.23 10 48.758 10 51.656C10 53.7 10.796 55.624 12.242 57.07L20.586 65.414L23.414 62.586L15.07 54.242C14.39 53.562 14 52.62 14 51.656C14 49.64 15.64 48 17.656 48C18.618 48 19.562 48.39 20.242 49.07L34 62.828V94Z"
      fill="#045161"
    />
    <path
      d="M40 8C40 4.692 37.308 2 34 2C30.692 2 28 4.692 28 8C28 10.604 29.678 12.804 32 13.632V18.828L40 26.828V32H44V25.172L36 17.172V13.632C38.322 12.804 40 10.604 40 8ZM34 6C35.104 6 36 6.896 36 8C36 9.104 35.104 10 34 10C32.896 10 32 9.104 32 8C32 6.896 32.896 6 34 6Z"
      fill="#045161"
    />
    <path
      d="M52 32V13.632C54.322 12.804 56 10.604 56 8C56 4.692 53.308 2 50 2C46.692 2 44 4.692 44 8C44 10.604 45.678 12.804 48 13.632V32H52ZM50 6C51.104 6 52 6.896 52 8C52 9.104 51.104 10 50 10C48.896 10 48 9.104 48 8C48 6.896 48.896 6 50 6Z"
      fill="#045161"
    />
    <path
      d="M68 13.632C70.322 12.804 72 10.604 72 8C72 4.692 69.308 2 66 2C62.692 2 60 4.692 60 8C60 10.604 61.678 12.804 64 13.632V17.172L56 25.172V32H60V26.828L68 18.828V13.632ZM66 6C67.104 6 68 6.896 68 8C68 9.104 67.104 10 66 10C64.896 10 64 9.104 64 8C64 6.896 64.896 6 66 6Z"
      fill="#045161"
    />
    <path d="M68 28H64V36H36V28H32V40H68V28Z" fill="#045161" />
  </svg>
